<svg xmlns="http://www.w3.org/2000/svg" viewBox="50 40.002 66.837 66.78"><defs><style>.a{fill:#34495f;}</style></defs><path class="a" d="M64.195,20.619a33.2,33.2,0,0,0-18.08-18.08,33.391,33.391,0,0,0-25.542,0,33.39,33.39,0,0,0,0,61.7,33.39,33.39,0,0,0,43.622-18.08A33.045,33.045,0,0,0,64.195,20.619ZM55.27,34.813,49.846,47.892a3.645,3.645,0,0,1-2,2L34.767,55.316a3.9,3.9,0,0,1-2.847,0L18.841,49.892a3.645,3.645,0,0,1-2-2L11.417,34.813a3.655,3.655,0,0,1,0-2.847l5.424-13.079a3.645,3.645,0,0,1,2-2L31.92,11.463a3.9,3.9,0,0,1,2.847,0l13.079,5.424a3.645,3.645,0,0,1,2,2L55.27,31.967A4.031,4.031,0,0,1,55.27,34.813Z" transform="translate(50.075 40.002)"/></svg>